<?xml version="1.0" encoding="UTF-8" standalone="no"?>
<!-- Created with Inkscape (http://www.inkscape.org/) -->

<svg
   width="6.3499999mm"
   height="7.0617299mm"
   viewBox="0 0 6.3499999 7.0617299"
   version="1.1"
   id="svg1"
   xml:space="preserve"
   xmlns:xlink="http://www.w3.org/1999/xlink"
   xmlns="http://www.w3.org/2000/svg"
   xmlns:svg="http://www.w3.org/2000/svg"><defs
     id="defs1"><linearGradient
       id="linearGradient2"><stop
         style="stop-color:#ff580f;stop-opacity:1;"
         offset="0"
         id="stop2" /><stop
         style="stop-color:#f23aaa;stop-opacity:0.95249778;"
         offset="1"
         id="stop3" /></linearGradient><linearGradient
       xlink:href="#linearGradient2"
       id="linearGradient3"
       x1="74.48439"
       y1="161.86443"
       x2="126.77996"
       y2="161.86443"
       gradientUnits="userSpaceOnUse"
       gradientTransform="matrix(0.12142486,0,0,0.12142486,65.440137,116.6626)" /></defs><g
     id="layer1"
     transform="translate(-74.484399,-132.78617)"><path
       fill="currentColor"
       d="m 77.658864,132.78619 c -0.840331,0 -1.491631,1.24338 -1.608418,2.97076 0.150734,0.16025 0.327821,0.31913 0.524183,0.47421 0.0021,-0.18034 0.01273,-0.35225 0.02741,-0.52092 a 8.4196279,8.4196279 0 0 1 0.513591,-0.33408 c 0.722469,-0.41718 1.466102,-0.69203 2.093235,-0.77351 a 2.7160091,2.7160091 0 0 1 0.343843,-0.0234 c 0.352262,0 0.601596,0.0847 0.693674,0.24389 0.08284,0.14423 0.04558,0.37345 -0.09321,0.6418 0.142051,0.13173 0.27704,0.26536 0.396549,0.40007 0.30582,-0.506 0.368284,-0.96581 0.167026,-1.31347 -0.239817,-0.41473 -0.799047,-0.58883 -1.576637,-0.48807 -0.696929,0.0901 -1.511731,0.38947 -2.295852,0.84251 -0.04999,0.0286 -0.09639,0.0603 -0.145303,0.0913 0.195009,-1.0052 0.591821,-1.6679 0.959841,-1.6679 0.171921,0 0.350361,0.14667 0.511424,0.40116 a 5.9752199,5.9752199 0 0 1 0.544292,-0.1445 c -0.281114,-0.50382 -0.646413,-0.79986 -1.055716,-0.79986 m -1.841727,1.25289 c -0.589101,-0.0106 -1.015519,0.16568 -1.215959,0.51251 -0.21836,0.37753 -0.127379,0.88488 0.248245,1.44192 0.03397,0.0518 0.07114,0.10703 0.117876,0.16759 0.426418,0.55787 1.092651,1.11384 1.876762,1.56714 0.04999,0.0285 0.10183,0.054 0.152911,0.0825 -0.310986,0.10728 -0.612189,0.18469 -0.889227,0.2208 -0.529613,0.0687 -0.916645,-0.0139 -1.03534,-0.2208 -0.08387,-0.14423 -0.04671,-0.37345 0.09239,-0.6418 a 6.5184221,6.5184221 0 0 1 -0.39789,-0.39897 c -0.304744,0.50517 -0.367209,0.96417 -0.165681,1.31237 0.195284,0.3384 0.602681,0.51658 1.167074,0.51658 0.128459,0 0.266166,-0.009 0.409572,-0.0285 q 0.123851,-0.0163 0.25041,-0.0413 l 0.05954,-0.0128 q 0.0061,-2e-4 0.0114,-0.002 c 0.144494,-0.0307 0.303645,-0.0733 0.486164,-0.13037 l 0.179261,-0.0554 c 0.266167,-0.0913 0.538853,-0.20479 0.81154,-0.33733 0.05944,-0.19745 0.112443,-0.4275 0.152643,-0.69259 -0.156987,0.0878 -0.315063,0.16731 -0.472049,0.24173 a 6.7900228,6.7900228 0 0 1 -0.541039,-0.28251 c -0.723544,-0.41772 -1.333556,-0.9237 -1.71651,-1.42591 -0.324833,-0.42533 -0.446784,-0.80177 -0.326742,-1.00872 0.08151,-0.14205 0.297949,-0.22271 0.596164,-0.23765 q 0.06303,-0.28845 0.148567,-0.54646 m 3.129652,1.1638 c -0.214284,0.05 -0.441342,0.12331 -0.673561,0.21538 0.153721,0.0913 0.300114,0.18903 0.442432,0.28655 0.01684,0.19744 0.02957,0.39897 0.02957,0.61218 0,1.6019 -0.503817,2.82411 -0.988624,2.97159 -0.03316,0.0109 -0.06714,0.0161 -0.09783,0.0161 -0.171924,0 -0.350363,-0.1453 -0.511424,-0.40196 -0.184694,0.0581 -0.366933,0.1081 -0.544285,0.14531 0.281104,0.50382 0.646401,0.79986 1.055709,0.79986 q 0.08099,0 0.156985,-0.016 c 0.849838,-0.16105 1.472619,-1.61684 1.472619,-3.51479 0,-0.0584 -0.0041,-0.1146 -0.0051,-0.17301 0.24851,0.21539 0.46715,0.43728 0.636627,0.65782 0.323756,0.4256 0.445429,0.80204 0.326743,1.009 -0.08366,0.14313 -0.29686,0.22597 -0.597251,0.24091 a 5.4320183,5.4320183 0 0 1 -0.147481,0.54429 c 0.01489,0 0.03285,0.003 0.04783,0.003 0.564391,0 0.971786,-0.17817 1.167073,-0.51659 0.239827,-0.41473 0.110269,-0.98671 -0.366122,-1.6095 -0.337324,-0.44136 -0.826484,-0.88053 -1.403635,-1.27001 m -1.287926,0.5709 a 0.54321,0.54321 0 1 0 0,1.08642 0.54321,0.54321 0 1 0 0,-1.08642"
       id="path1"
       style="fill:url(#linearGradient3);stroke-width:0.271601" /></g></svg>
